<svg width="79" height="79" viewBox="0 0 79 79" fill="none" xmlns="http://www.w3.org/2000/svg">
<g clip-path="url(#clip0_223_3)">
<mask id="mask0_223_3" style="mask-type:luminance" maskUnits="userSpaceOnUse" x="0" y="0" width="79" height="79">
<path d="M78.4601 0H0V78.4601H78.4601V0Z" fill="white"/>
</mask>
<g mask="url(#mask0_223_3)">
<path fill-rule="evenodd" clip-rule="evenodd" d="M68.8563 29.9869L25.5303 44.8757C21.923 46.1155 18.8885 46.7341 16.4431 46.7341C13.6917 46.7341 11.6873 45.9475 10.4564 44.3771C8.86009 42.3507 9.55783 39.0924 12.2961 35.6528C13.922 33.6425 15.989 31.7973 18.0032 30.0322C17.5293 30.6562 13.3461 36.2954 17.9209 38.9511C18.826 39.4843 20.1128 39.7457 21.6959 39.7457C22.9664 39.7457 24.4244 39.5777 26.0273 39.2391L68.8563 29.9869Z" fill="white"/>
</g>
</g>
<defs>
<clipPath id="clip0_223_3">
<rect width="78.99" height="78.99" fill="white"/>
</clipPath>
</defs>
</svg>
